<mxfile host="65bd71144e">
    <diagram id="HHzMR12md0VG4_hs9tZS" name="Page-1">
        <mxGraphModel dx="1513" dy="849" grid="1" gridSize="10" guides="1" tooltips="1" connect="1" arrows="1" fold="1" page="1" pageScale="1" pageWidth="2000" pageHeight="2000" math="0" shadow="0">
            <root>
                <mxCell id="0"/>
                <mxCell id="1" parent="0"/>
                <mxCell id="20" style="edgeStyle=none;html=1;exitX=0;exitY=0;exitDx=0;exitDy=0;entryX=1;entryY=1;entryDx=0;entryDy=0;fontSize=20;fontColor=#000000;" edge="1" parent="1" source="2" target="3">
                    <mxGeometry relative="1" as="geometry"/>
                </mxCell>
                <mxCell id="21" style="edgeStyle=none;html=1;exitX=0;exitY=1;exitDx=0;exitDy=0;entryX=1;entryY=0;entryDx=0;entryDy=0;fontSize=20;fontColor=#000000;" edge="1" parent="1" source="2" target="7">
                    <mxGeometry relative="1" as="geometry"/>
                </mxCell>
                <mxCell id="22" style="edgeStyle=none;html=1;exitX=1;exitY=0;exitDx=0;exitDy=0;entryX=0;entryY=1;entryDx=0;entryDy=0;fontSize=20;fontColor=#000000;" edge="1" parent="1" source="2" target="9">
                    <mxGeometry relative="1" as="geometry"/>
                </mxCell>
                <mxCell id="23" style="edgeStyle=none;html=1;exitX=1;exitY=1;exitDx=0;exitDy=0;entryX=0;entryY=0;entryDx=0;entryDy=0;fontSize=20;fontColor=#000000;" edge="1" parent="1" source="2" target="8">
                    <mxGeometry relative="1" as="geometry"/>
                </mxCell>
                <mxCell id="2" value="Home" style="whiteSpace=wrap;html=1;fillColor=#d5e8d4;strokeColor=#82b366;fontStyle=1;fontSize=25;gradientColor=#97d077;fontColor=#000000;" vertex="1" parent="1">
                    <mxGeometry x="940" y="970" width="120" height="60" as="geometry"/>
                </mxCell>
                <mxCell id="8" value="Voting" style="whiteSpace=wrap;html=1;fontSize=25;fontStyle=1;fillColor=#a20025;fontColor=#ffffff;strokeColor=#6F0000;" vertex="1" parent="1">
                    <mxGeometry x="1200" y="1120" width="120" height="60" as="geometry"/>
                </mxCell>
                <mxCell id="9" value="Results" style="whiteSpace=wrap;html=1;fontSize=25;fontStyle=1;fillColor=#a20025;fontColor=#ffffff;strokeColor=#6F0000;" vertex="1" parent="1">
                    <mxGeometry x="1200" y="820" width="120" height="60" as="geometry"/>
                </mxCell>
                <mxCell id="55" value="" style="group" vertex="1" connectable="0" parent="1">
                    <mxGeometry x="390" y="1070" width="485" height="390" as="geometry"/>
                </mxCell>
                <mxCell id="53" value="" style="group;fillColor=#4D4D4D;strokeColor=#36393d;movable=1;resizable=1;rotatable=1;deletable=1;editable=1;connectable=1;gradientColor=none;gradientDirection=radial;rounded=0;opacity=60;perimeterSpacing=1;container=0;glass=0;shadow=0;" vertex="1" connectable="0" parent="55">
                    <mxGeometry width="480" height="390" as="geometry"/>
                </mxCell>
                <mxCell id="7" value="Candidates" style="whiteSpace=wrap;html=1;fontStyle=1;fontSize=25;fillColor=#cce5ff;strokeColor=#36393d;fontColor=#000000;" vertex="1" parent="55">
                    <mxGeometry x="290" y="50" width="170" height="60" as="geometry"/>
                </mxCell>
                <mxCell id="38" value="Candidate Nomination" style="whiteSpace=wrap;html=1;fontSize=20;fontStyle=1;fillColor=#a20025;fontColor=#ffffff;strokeColor=#6F0000;" vertex="1" parent="55">
                    <mxGeometry x="20" y="50" width="190" height="60" as="geometry"/>
                </mxCell>
                <mxCell id="42" style="edgeStyle=none;html=1;exitX=0;exitY=0.5;exitDx=0;exitDy=0;entryX=1;entryY=0.5;entryDx=0;entryDy=0;fontSize=20;fontColor=#000000;" edge="1" parent="55" source="7" target="38">
                    <mxGeometry relative="1" as="geometry"/>
                </mxCell>
                <mxCell id="39" value="Information Related with Nomination" style="whiteSpace=wrap;html=1;fontSize=20;fontStyle=1;fillColor=#a20025;fontColor=#ffffff;strokeColor=#6F0000;" vertex="1" parent="55">
                    <mxGeometry x="20" y="130" width="190" height="60" as="geometry"/>
                </mxCell>
                <mxCell id="43" style="edgeStyle=none;html=1;exitX=0;exitY=1;exitDx=0;exitDy=0;entryX=1;entryY=0.5;entryDx=0;entryDy=0;fontSize=20;fontColor=#000000;" edge="1" parent="55" source="7" target="39">
                    <mxGeometry relative="1" as="geometry"/>
                </mxCell>
                <mxCell id="40" value="Nomination Status &amp;amp; Permissions" style="whiteSpace=wrap;html=1;fontSize=20;fontStyle=1;fillColor=#a20025;fontColor=#ffffff;strokeColor=#6F0000;" vertex="1" parent="55">
                    <mxGeometry x="20" y="220" width="190" height="60" as="geometry"/>
                </mxCell>
                <mxCell id="44" style="edgeStyle=none;html=1;exitX=0.25;exitY=1;exitDx=0;exitDy=0;entryX=1;entryY=0.5;entryDx=0;entryDy=0;fontSize=20;fontColor=#000000;" edge="1" parent="55" source="7" target="40">
                    <mxGeometry relative="1" as="geometry"/>
                </mxCell>
                <mxCell id="41" value="Affidavit Portal" style="whiteSpace=wrap;html=1;fontSize=20;fontStyle=1;fillColor=#a20025;fontColor=#ffffff;strokeColor=#6F0000;" vertex="1" parent="55">
                    <mxGeometry x="20" y="300" width="190" height="60" as="geometry"/>
                </mxCell>
                <mxCell id="51" style="edgeStyle=none;html=1;exitX=0.5;exitY=1;exitDx=0;exitDy=0;entryX=1;entryY=0.5;entryDx=0;entryDy=0;fontSize=20;fontColor=#000000;" edge="1" parent="55" source="7" target="41">
                    <mxGeometry relative="1" as="geometry"/>
                </mxCell>
                <mxCell id="54" value="&lt;font&gt;Candidates&lt;/font&gt;" style="text;html=1;align=center;verticalAlign=middle;resizable=0;points=[];autosize=1;strokeColor=none;fillColor=none;fontSize=20;fontColor=#FFFF33;fontStyle=5;labelBackgroundColor=none;labelBorderColor=none;spacingLeft=0;" vertex="1" parent="55">
                    <mxGeometry x="350" width="130" height="40" as="geometry"/>
                </mxCell>
                <mxCell id="57" value="" style="group" vertex="1" connectable="0" parent="1">
                    <mxGeometry x="390" y="530" width="430" height="390" as="geometry"/>
                </mxCell>
                <mxCell id="48" value="" style="group;fillColor=#4D4D4D;strokeColor=#36393d;movable=1;resizable=1;rotatable=1;deletable=1;editable=1;connectable=1;gradientColor=none;gradientDirection=radial;rounded=0;opacity=60;perimeterSpacing=1;container=0;glass=0;shadow=0;" vertex="1" connectable="0" parent="57">
                    <mxGeometry width="430" height="390" as="geometry"/>
                </mxCell>
                <mxCell id="3" value="Parties" style="whiteSpace=wrap;html=1;fillColor=#cce5ff;strokeColor=#36393d;fontSize=25;fontStyle=1;fontColor=#000000;" vertex="1" parent="57">
                    <mxGeometry x="290" y="290" width="120" height="60" as="geometry"/>
                </mxCell>
                <mxCell id="16" value="PoliticalParties Registration" style="whiteSpace=wrap;html=1;fontSize=20;fontStyle=1;fillColor=#a20025;fontColor=#ffffff;strokeColor=#6F0000;" vertex="1" parent="57">
                    <mxGeometry x="20" y="40" width="190" height="60" as="geometry"/>
                </mxCell>
                <mxCell id="37" style="edgeStyle=none;html=1;exitX=0.5;exitY=0;exitDx=0;exitDy=0;entryX=1;entryY=0.5;entryDx=0;entryDy=0;fontSize=20;fontColor=#000000;" edge="1" parent="57" source="3" target="16">
                    <mxGeometry relative="1" as="geometry"/>
                </mxCell>
                <mxCell id="25" value="Political Parties &amp;amp; Election Symbol" style="whiteSpace=wrap;html=1;fontSize=20;fontStyle=1;fillColor=#a20025;fontColor=#ffffff;strokeColor=#6F0000;" vertex="1" parent="57">
                    <mxGeometry x="20" y="120" width="190" height="60" as="geometry"/>
                </mxCell>
                <mxCell id="35" style="edgeStyle=none;html=1;exitX=0.25;exitY=0;exitDx=0;exitDy=0;entryX=1;entryY=0.5;entryDx=0;entryDy=0;fontSize=20;fontColor=#000000;" edge="1" parent="57" source="3" target="25">
                    <mxGeometry relative="1" as="geometry"/>
                </mxCell>
                <mxCell id="27" value="Constitutions of Political Parties" style="whiteSpace=wrap;html=1;fontSize=20;fontStyle=1;fillColor=#a20025;fontColor=#ffffff;strokeColor=#6F0000;" vertex="1" parent="57">
                    <mxGeometry x="20" y="210" width="190" height="60" as="geometry"/>
                </mxCell>
                <mxCell id="34" style="edgeStyle=none;html=1;exitX=0;exitY=0;exitDx=0;exitDy=0;entryX=1;entryY=0.5;entryDx=0;entryDy=0;fontSize=20;fontColor=#000000;" edge="1" parent="57" source="3" target="27">
                    <mxGeometry relative="1" as="geometry"/>
                </mxCell>
                <mxCell id="30" value="Constitutions of Political Parties" style="whiteSpace=wrap;html=1;fontSize=20;fontStyle=1;fillColor=#a20025;fontColor=#ffffff;strokeColor=#6F0000;" vertex="1" parent="57">
                    <mxGeometry x="20" y="290" width="190" height="60" as="geometry"/>
                </mxCell>
                <mxCell id="36" style="edgeStyle=none;html=1;exitX=0;exitY=0.5;exitDx=0;exitDy=0;entryX=1;entryY=0.5;entryDx=0;entryDy=0;fontSize=20;fontColor=#000000;" edge="1" parent="57" source="3" target="30">
                    <mxGeometry relative="1" as="geometry"/>
                </mxCell>
                <mxCell id="56" value="&lt;font&gt;Parties&lt;/font&gt;" style="text;html=1;align=center;verticalAlign=middle;resizable=0;points=[];autosize=1;strokeColor=none;fillColor=none;fontSize=20;fontColor=#FFFF33;fontStyle=5;labelBackgroundColor=none;labelBorderColor=none;spacingLeft=0;" vertex="1" parent="57">
                    <mxGeometry x="340" width="90" height="40" as="geometry"/>
                </mxCell>
            </root>
        </mxGraphModel>
    </diagram>
</mxfile>